<svg width="1770" height="112" viewBox="0 0 1770 112" fill="none" xmlns="http://www.w3.org/2000/svg">
<ellipse cx="1745" cy="56" rx="25" ry="25" fill="#CACACA"/>
<path fill-rule="evenodd" clip-rule="evenodd" d="M1745.06 55.0571L1745.06 40L1745.94 40L1745.94 55.0571L1753.88 55.0571L1761 55.0571V55.9429L1745.94 55.9429L1745.94 71L1745.06 71L1745.06 55.9429L1730 55.9429L1730 55.0571L1745.06 55.0571Z" fill="black"/>
<path d="M2.088 48.2H5.952V59.144L13.968 48.2H17.616V65H13.776V54.08L5.76 65H2.088V48.2ZM29.8869 58.28C30.6549 58.52 31.2469 58.888 31.6629 59.384C32.0949 59.88 32.3109 60.472 32.3109 61.16C32.3109 61.976 32.0309 62.696 31.4709 63.32C30.9109 63.928 30.1429 64.4 29.1669 64.736C28.1909 65.072 27.0869 65.24 25.8549 65.24C24.8469 65.24 23.8549 65.136 22.8789 64.928C21.9029 64.72 20.9989 64.408 20.1669 63.992L21.1749 61.376C22.5349 62.032 24.0389 62.36 25.6869 62.36C26.5669 62.36 27.2549 62.232 27.7509 61.976C28.2629 61.704 28.5189 61.328 28.5189 60.848C28.5189 60.432 28.3429 60.12 27.9909 59.912C27.6389 59.688 27.1269 59.576 26.4549 59.576H23.8149V57.248H26.1189C26.7749 57.248 27.2789 57.144 27.6309 56.936C27.9829 56.728 28.1589 56.424 28.1589 56.024C28.1589 55.608 27.9349 55.288 27.4869 55.064C27.0549 54.84 26.4309 54.728 25.6149 54.728C24.3669 54.728 23.0069 55.024 21.5349 55.616L20.6229 53.024C22.4149 52.24 24.1589 51.848 25.8549 51.848C27.0229 51.848 28.0629 51.992 28.9749 52.28C29.9029 52.568 30.6309 52.992 31.1589 53.552C31.6869 54.096 31.9509 54.736 31.9509 55.472C31.9509 56.08 31.7669 56.632 31.3989 57.128C31.0309 57.608 30.5269 57.992 29.8869 58.28ZM53.4473 52.088V65H49.7033V60.2C48.6153 60.744 47.4153 61.016 46.1033 61.016C44.3593 61.016 43.0393 60.624 42.1433 59.84C41.2633 59.04 40.8232 57.808 40.8232 56.144V52.088H44.5673V55.904C44.5673 56.688 44.7673 57.256 45.1673 57.608C45.5833 57.96 46.1753 58.136 46.9433 58.136C47.9193 58.136 48.8393 57.928 49.7033 57.512V52.088H53.4473ZM69.5942 58.592C69.5942 58.64 69.5702 58.976 69.5222 59.6H59.7542C59.9302 60.4 60.3462 61.032 61.0022 61.496C61.6582 61.96 62.4742 62.192 63.4502 62.192C64.1222 62.192 64.7142 62.096 65.2262 61.904C65.7542 61.696 66.2422 61.376 66.6902 60.944L68.6822 63.104C67.4662 64.496 65.6902 65.192 63.3542 65.192C61.8982 65.192 60.6102 64.912 59.4902 64.352C58.3702 63.776 57.5062 62.984 56.8982 61.976C56.2902 60.968 55.9862 59.824 55.9862 58.544C55.9862 57.28 56.2822 56.144 56.8742 55.136C57.4822 54.112 58.3062 53.32 59.3462 52.76C60.4022 52.184 61.5782 51.896 62.8742 51.896C64.1382 51.896 65.2822 52.168 66.3062 52.712C67.3302 53.256 68.1302 54.04 68.7062 55.064C69.2982 56.072 69.5942 57.248 69.5942 58.592ZM62.8982 54.728C62.0502 54.728 61.3382 54.968 60.7622 55.448C60.1862 55.928 59.8342 56.584 59.7062 57.416H66.0662C65.9382 56.6 65.5862 55.952 65.0102 55.472C64.4342 54.976 63.7302 54.728 62.8982 54.728ZM82.8081 55.16H76.1841V65H72.4641V52.088H82.8081V55.16ZM90.3011 65.192C88.9411 65.192 87.7171 64.912 86.6291 64.352C85.5571 63.776 84.7171 62.984 84.1091 61.976C83.5011 60.968 83.1971 59.824 83.1971 58.544C83.1971 57.264 83.5011 56.12 84.1091 55.112C84.7171 54.104 85.5571 53.32 86.6291 52.76C87.7171 52.184 88.9411 51.896 90.3011 51.896C91.6611 51.896 92.8771 52.184 93.9491 52.76C95.0211 53.32 95.8611 54.104 96.4691 55.112C97.0771 56.12 97.3811 57.264 97.3811 58.544C97.3811 59.824 97.0771 60.968 96.4691 61.976C95.8611 62.984 95.0211 63.776 93.9491 64.352C92.8771 64.912 91.6611 65.192 90.3011 65.192ZM90.3011 62.12C91.2611 62.12 92.0451 61.8 92.6531 61.16C93.2771 60.504 93.5891 59.632 93.5891 58.544C93.5891 57.456 93.2771 56.592 92.6531 55.952C92.0451 55.296 91.2611 54.968 90.3011 54.968C89.3411 54.968 88.5491 55.296 87.9251 55.952C87.3011 56.592 86.9891 57.456 86.9891 58.544C86.9891 59.632 87.3011 60.504 87.9251 61.16C88.5491 61.8 89.3411 62.12 90.3011 62.12ZM124.585 58.496C124.585 60.496 123.913 62.08 122.569 63.248C121.241 64.4 119.337 65.064 116.857 65.24V69.656H113.425V65.24C110.945 65.064 109.033 64.408 107.689 63.272C106.361 62.12 105.697 60.528 105.697 58.496C105.697 56.496 106.353 54.944 107.665 53.84C108.993 52.736 110.913 52.096 113.425 51.92V47.192H116.857V51.92C119.337 52.096 121.241 52.744 122.569 53.864C123.913 54.984 124.585 56.528 124.585 58.496ZM109.321 58.496C109.321 59.648 109.649 60.536 110.305 61.16C110.961 61.784 112.001 62.176 113.425 62.336V54.824C112.001 54.968 110.961 55.344 110.305 55.952C109.649 56.544 109.321 57.392 109.321 58.496ZM116.857 62.336C118.281 62.176 119.321 61.784 119.977 61.16C120.649 60.536 120.985 59.648 120.985 58.496C120.985 57.392 120.649 56.544 119.977 55.952C119.321 55.344 118.281 54.968 116.857 54.824V62.336ZM133.168 65.192C131.808 65.192 130.584 64.912 129.496 64.352C128.424 63.776 127.584 62.984 126.976 61.976C126.368 60.968 126.064 59.824 126.064 58.544C126.064 57.264 126.368 56.12 126.976 55.112C127.584 54.104 128.424 53.32 129.496 52.76C130.584 52.184 131.808 51.896 133.168 51.896C134.528 51.896 135.744 52.184 136.816 52.76C137.888 53.32 138.728 54.104 139.336 55.112C139.944 56.12 140.248 57.264 140.248 58.544C140.248 59.824 139.944 60.968 139.336 61.976C138.728 62.984 137.888 63.776 136.816 64.352C135.744 64.912 134.528 65.192 133.168 65.192ZM133.168 62.12C134.128 62.12 134.912 61.8 135.52 61.16C136.144 60.504 136.456 59.632 136.456 58.544C136.456 57.456 136.144 56.592 135.52 55.952C134.912 55.296 134.128 54.968 133.168 54.968C132.208 54.968 131.416 55.296 130.792 55.952C130.168 56.592 129.856 57.456 129.856 58.544C129.856 59.632 130.168 60.504 130.792 61.16C131.416 61.8 132.208 62.12 133.168 62.12ZM150.431 51.896C151.631 51.896 152.719 52.176 153.695 52.736C154.687 53.28 155.463 54.056 156.023 55.064C156.583 56.056 156.863 57.216 156.863 58.544C156.863 59.872 156.583 61.04 156.023 62.048C155.463 63.04 154.687 63.816 153.695 64.376C152.719 64.92 151.631 65.192 150.431 65.192C148.783 65.192 147.487 64.672 146.543 63.632V69.656H142.799V52.088H146.375V53.576C147.303 52.456 148.655 51.896 150.431 51.896ZM149.783 62.12C150.743 62.12 151.527 61.8 152.135 61.16C152.759 60.504 153.071 59.632 153.071 58.544C153.071 57.456 152.759 56.592 152.135 55.952C151.527 55.296 150.743 54.968 149.783 54.968C148.823 54.968 148.031 55.296 147.407 55.952C146.799 56.592 146.495 57.456 146.495 58.544C146.495 59.632 146.799 60.504 147.407 61.16C148.031 61.8 148.823 62.12 149.783 62.12ZM172.088 65V57.272L168.224 63.752H166.64L162.872 57.248V65H159.488V52.088H163.4L167.528 59.552L171.92 52.088H175.424L175.472 65H172.088ZM179.058 52.088H182.778V59.768L189.066 52.088H192.498V65H188.778V57.32L182.514 65H179.058V52.088ZM203.705 51.896C204.905 51.896 205.993 52.176 206.969 52.736C207.961 53.28 208.737 54.056 209.297 55.064C209.857 56.056 210.137 57.216 210.137 58.544C210.137 59.872 209.857 61.04 209.297 62.048C208.737 63.04 207.961 63.816 206.969 64.376C205.993 64.92 204.905 65.192 203.705 65.192C202.057 65.192 200.761 64.672 199.817 63.632V69.656H196.073V52.088H199.649V53.576C200.577 52.456 201.929 51.896 203.705 51.896ZM203.057 62.12C204.017 62.12 204.801 61.8 205.409 61.16C206.033 60.504 206.345 59.632 206.345 58.544C206.345 57.456 206.033 56.592 205.409 55.952C204.801 55.296 204.017 54.968 203.057 54.968C202.097 54.968 201.305 55.296 200.681 55.952C200.073 56.592 199.769 57.456 199.769 58.544C199.769 59.632 200.073 60.504 200.681 61.16C201.305 61.8 202.097 62.12 203.057 62.12ZM225.345 52.088L219.513 65.792C218.921 67.28 218.185 68.328 217.305 68.936C216.441 69.544 215.393 69.848 214.161 69.848C213.489 69.848 212.825 69.744 212.169 69.536C211.513 69.328 210.977 69.04 210.561 68.672L211.929 66.008C212.217 66.264 212.545 66.464 212.913 66.608C213.297 66.752 213.673 66.824 214.041 66.824C214.553 66.824 214.969 66.696 215.289 66.44C215.609 66.2 215.897 65.792 216.153 65.216L216.201 65.096L210.609 52.088H214.473L218.097 60.848L221.745 52.088H225.345ZM239.352 58.592C239.352 58.64 239.328 58.976 239.28 59.6H229.512C229.688 60.4 230.104 61.032 230.76 61.496C231.416 61.96 232.232 62.192 233.208 62.192C233.88 62.192 234.472 62.096 234.984 61.904C235.512 61.696 236 61.376 236.448 60.944L238.44 63.104C237.224 64.496 235.448 65.192 233.112 65.192C231.656 65.192 230.368 64.912 229.248 64.352C228.128 63.776 227.264 62.984 226.656 61.976C226.048 60.968 225.744 59.824 225.744 58.544C225.744 57.28 226.04 56.144 226.632 55.136C227.24 54.112 228.064 53.32 229.104 52.76C230.16 52.184 231.336 51.896 232.632 51.896C233.896 51.896 235.04 52.168 236.064 52.712C237.088 53.256 237.888 54.04 238.464 55.064C239.056 56.072 239.352 57.248 239.352 58.592ZM232.656 54.728C231.808 54.728 231.096 54.968 230.52 55.448C229.944 55.928 229.592 56.584 229.464 57.416H235.824C235.696 56.6 235.344 55.952 234.768 55.472C234.192 54.976 233.488 54.728 232.656 54.728ZM252.625 55.16H248.257V65H244.537V55.16H240.169V52.088H252.625V55.16ZM260.225 65.192C258.849 65.192 257.609 64.912 256.505 64.352C255.417 63.776 254.561 62.984 253.937 61.976C253.329 60.968 253.025 59.824 253.025 58.544C253.025 57.264 253.329 56.12 253.937 55.112C254.561 54.104 255.417 53.32 256.505 52.76C257.609 52.184 258.849 51.896 260.225 51.896C261.585 51.896 262.769 52.184 263.777 52.76C264.801 53.32 265.545 54.128 266.009 55.184L263.105 56.744C262.433 55.56 261.465 54.968 260.201 54.968C259.225 54.968 258.417 55.288 257.777 55.928C257.137 56.568 256.817 57.44 256.817 58.544C256.817 59.648 257.137 60.52 257.777 61.16C258.417 61.8 259.225 62.12 260.201 62.12C261.481 62.12 262.449 61.528 263.105 60.344L266.009 61.928C265.545 62.952 264.801 63.752 263.777 64.328C262.769 64.904 261.585 65.192 260.225 65.192ZM279.428 52.088V65H276.092V61.304H273.332L270.884 65H266.9L269.852 60.776C268.956 60.424 268.268 59.92 267.788 59.264C267.324 58.592 267.092 57.784 267.092 56.84C267.092 55.32 267.636 54.152 268.724 53.336C269.828 52.504 271.34 52.088 273.26 52.088H279.428ZM273.332 55.136C272.532 55.136 271.924 55.28 271.508 55.568C271.108 55.856 270.908 56.32 270.908 56.96C270.908 57.6 271.1 58.072 271.484 58.376C271.884 58.664 272.484 58.808 273.284 58.808H276.092V55.136H273.332ZM295.511 60.104H293.567V65H289.823V52.088H293.567V57.104H295.583L299.087 52.088H303.071L298.559 58.28L303.383 65H298.967L295.511 60.104ZM310.871 65.192C309.511 65.192 308.287 64.912 307.199 64.352C306.127 63.776 305.287 62.984 304.679 61.976C304.071 60.968 303.767 59.824 303.767 58.544C303.767 57.264 304.071 56.12 304.679 55.112C305.287 54.104 306.127 53.32 307.199 52.76C308.287 52.184 309.511 51.896 310.871 51.896C312.231 51.896 313.447 52.184 314.519 52.76C315.591 53.32 316.431 54.104 317.039 55.112C317.647 56.12 317.951 57.264 317.951 58.544C317.951 59.824 317.647 60.968 317.039 61.976C316.431 62.984 315.591 63.776 314.519 64.352C313.447 64.912 312.231 65.192 310.871 65.192ZM310.871 62.12C311.831 62.12 312.615 61.8 313.223 61.16C313.847 60.504 314.159 59.632 314.159 58.544C314.159 57.456 313.847 56.592 313.223 55.952C312.615 55.296 311.831 54.968 310.871 54.968C309.911 54.968 309.119 55.296 308.495 55.952C307.871 56.592 307.559 57.456 307.559 58.544C307.559 59.632 307.871 60.504 308.495 61.16C309.119 61.8 309.911 62.12 310.871 62.12ZM320.527 52.088H324.247V57.128H329.863V52.088H333.607V65H329.863V60.176H324.247V65H320.527V52.088ZM349.743 58.592C349.743 58.64 349.719 58.976 349.671 59.6H339.903C340.079 60.4 340.495 61.032 341.151 61.496C341.807 61.96 342.623 62.192 343.599 62.192C344.271 62.192 344.863 62.096 345.375 61.904C345.903 61.696 346.391 61.376 346.839 60.944L348.831 63.104C347.615 64.496 345.839 65.192 343.503 65.192C342.047 65.192 340.759 64.912 339.639 64.352C338.519 63.776 337.655 62.984 337.047 61.976C336.439 60.968 336.135 59.824 336.135 58.544C336.135 57.28 336.431 56.144 337.023 55.136C337.631 54.112 338.455 53.32 339.495 52.76C340.551 52.184 341.727 51.896 343.023 51.896C344.287 51.896 345.431 52.168 346.455 52.712C347.479 53.256 348.279 54.04 348.855 55.064C349.447 56.072 349.743 57.248 349.743 58.592ZM343.047 54.728C342.199 54.728 341.487 54.968 340.911 55.448C340.335 55.928 339.983 56.584 339.855 57.416H346.215C346.087 56.6 345.735 55.952 345.159 55.472C344.583 54.976 343.879 54.728 343.047 54.728ZM364.229 52.088V65H360.485V60.2C359.397 60.744 358.197 61.016 356.885 61.016C355.141 61.016 353.821 60.624 352.925 59.84C352.045 59.04 351.604 57.808 351.604 56.144V52.088H355.349V55.904C355.349 56.688 355.549 57.256 355.949 57.608C356.365 57.96 356.957 58.136 357.725 58.136C358.701 58.136 359.621 57.928 360.485 57.512V52.088H364.229ZM367.823 52.088H371.543V57.128H377.159V52.088H380.903V65H377.159V60.176H371.543V65H367.823V52.088ZM389.504 51.896C391.504 51.896 393.04 52.376 394.112 53.336C395.184 54.28 395.72 55.712 395.72 57.632V65H392.216V63.392C391.512 64.592 390.2 65.192 388.28 65.192C387.288 65.192 386.424 65.024 385.688 64.688C384.968 64.352 384.416 63.888 384.032 63.296C383.648 62.704 383.456 62.032 383.456 61.28C383.456 60.08 383.904 59.136 384.8 58.448C385.712 57.76 387.112 57.416 389 57.416H391.976C391.976 56.6 391.728 55.976 391.232 55.544C390.736 55.096 389.992 54.872 389 54.872C388.312 54.872 387.632 54.984 386.96 55.208C386.304 55.416 385.744 55.704 385.28 56.072L383.936 53.456C384.64 52.96 385.48 52.576 386.456 52.304C387.448 52.032 388.464 51.896 389.504 51.896ZM389.216 62.672C389.856 62.672 390.424 62.528 390.92 62.24C391.416 61.936 391.768 61.496 391.976 60.92V59.6H389.408C387.872 59.6 387.104 60.104 387.104 61.112C387.104 61.592 387.288 61.976 387.656 62.264C388.04 62.536 388.56 62.672 389.216 62.672ZM410.444 52.088V65H407.108V61.304H404.348L401.9 65H397.916L400.868 60.776C399.972 60.424 399.284 59.92 398.804 59.264C398.34 58.592 398.108 57.784 398.108 56.84C398.108 55.32 398.652 54.152 399.74 53.336C400.844 52.504 402.356 52.088 404.276 52.088H410.444ZM404.348 55.136C403.548 55.136 402.94 55.28 402.524 55.568C402.124 55.856 401.924 56.32 401.924 56.96C401.924 57.6 402.116 58.072 402.5 58.376C402.9 58.664 403.5 58.808 404.3 58.808H407.108V55.136H404.348ZM426.983 65.192C425.607 65.192 424.367 64.912 423.263 64.352C422.175 63.776 421.319 62.984 420.695 61.976C420.087 60.968 419.783 59.824 419.783 58.544C419.783 57.264 420.087 56.12 420.695 55.112C421.319 54.104 422.175 53.32 423.263 52.76C424.367 52.184 425.607 51.896 426.983 51.896C428.343 51.896 429.527 52.184 430.535 52.76C431.559 53.32 432.303 54.128 432.767 55.184L429.863 56.744C429.191 55.56 428.223 54.968 426.959 54.968C425.983 54.968 425.175 55.288 424.535 55.928C423.895 56.568 423.575 57.44 423.575 58.544C423.575 59.648 423.895 60.52 424.535 61.16C425.175 61.8 425.983 62.12 426.959 62.12C428.239 62.12 429.207 61.528 429.863 60.344L432.767 61.928C432.303 62.952 431.559 63.752 430.535 64.328C429.527 64.904 428.343 65.192 426.983 65.192ZM445.843 55.16H441.475V65H437.755V55.16H433.387V52.088H445.843V55.16ZM453.348 65.192C451.988 65.192 450.764 64.912 449.676 64.352C448.604 63.776 447.764 62.984 447.156 61.976C446.548 60.968 446.244 59.824 446.244 58.544C446.244 57.264 446.548 56.12 447.156 55.112C447.764 54.104 448.604 53.32 449.676 52.76C450.764 52.184 451.988 51.896 453.348 51.896C454.708 51.896 455.924 52.184 456.996 52.76C458.068 53.32 458.908 54.104 459.516 55.112C460.124 56.12 460.428 57.264 460.428 58.544C460.428 59.824 460.124 60.968 459.516 61.976C458.908 62.984 458.068 63.776 456.996 64.352C455.924 64.912 454.708 65.192 453.348 65.192ZM453.348 62.12C454.308 62.12 455.092 61.8 455.7 61.16C456.324 60.504 456.636 59.632 456.636 58.544C456.636 57.456 456.324 56.592 455.7 55.952C455.092 55.296 454.308 54.968 453.348 54.968C452.388 54.968 451.596 55.296 450.972 55.952C450.348 56.592 450.036 57.456 450.036 58.544C450.036 59.632 450.348 60.504 450.972 61.16C451.596 61.8 452.388 62.12 453.348 62.12ZM463.003 52.088H466.723V59.768L473.011 52.088H476.443V65H472.723V57.32L466.459 65H463.003V52.088ZM492.642 65V57.272L488.778 63.752H487.194L483.426 57.248V65H480.042V52.088H483.954L488.082 59.552L492.474 52.088H495.978L496.026 65H492.642ZM505.661 65.192C504.301 65.192 503.077 64.912 501.989 64.352C500.917 63.776 500.077 62.984 499.469 61.976C498.861 60.968 498.557 59.824 498.557 58.544C498.557 57.264 498.861 56.12 499.469 55.112C500.077 54.104 500.917 53.32 501.989 52.76C503.077 52.184 504.301 51.896 505.661 51.896C507.021 51.896 508.237 52.184 509.309 52.76C510.381 53.32 511.221 54.104 511.829 55.112C512.437 56.12 512.741 57.264 512.741 58.544C512.741 59.824 512.437 60.968 511.829 61.976C511.221 62.984 510.381 63.776 509.309 64.352C508.237 64.912 507.021 65.192 505.661 65.192ZM505.661 62.12C506.621 62.12 507.405 61.8 508.013 61.16C508.637 60.504 508.949 59.632 508.949 58.544C508.949 57.456 508.637 56.592 508.013 55.952C507.405 55.296 506.621 54.968 505.661 54.968C504.701 54.968 503.909 55.296 503.285 55.952C502.661 56.592 502.349 57.456 502.349 58.544C502.349 59.632 502.661 60.504 503.285 61.16C503.909 61.8 504.701 62.12 505.661 62.12ZM521.46 65.192C520.084 65.192 518.844 64.912 517.74 64.352C516.652 63.776 515.796 62.984 515.172 61.976C514.564 60.968 514.26 59.824 514.26 58.544C514.26 57.264 514.564 56.12 515.172 55.112C515.796 54.104 516.652 53.32 517.74 52.76C518.844 52.184 520.084 51.896 521.46 51.896C522.82 51.896 524.004 52.184 525.012 52.76C526.036 53.32 526.78 54.128 527.244 55.184L524.34 56.744C523.668 55.56 522.7 54.968 521.436 54.968C520.46 54.968 519.652 55.288 519.012 55.928C518.372 56.568 518.052 57.44 518.052 58.544C518.052 59.648 518.372 60.52 519.012 61.16C519.652 61.8 520.46 62.12 521.436 62.12C522.716 62.12 523.684 61.528 524.34 60.344L527.244 61.928C526.78 62.952 526.036 63.752 525.012 64.328C524.004 64.904 522.82 65.192 521.46 65.192ZM540.32 55.16H535.952V65H532.232V55.16H527.864V52.088H540.32V55.16ZM549.3 56.216C550.98 56.232 552.268 56.616 553.164 57.368C554.06 58.104 554.508 59.152 554.508 60.512C554.508 61.936 554.004 63.048 552.996 63.848C552.004 64.632 550.604 65.024 548.796 65.024L542.316 65V52.088H546.036V56.216H549.3ZM548.46 62.36C549.18 62.376 549.732 62.224 550.116 61.904C550.5 61.584 550.692 61.104 550.692 60.464C550.692 59.84 550.5 59.384 550.116 59.096C549.748 58.808 549.196 58.656 548.46 58.64L546.036 58.616V62.36H548.46ZM576.484 52.088V65H572.74V55.16H567.364V65H563.644V52.088H576.484ZM587.681 51.896C588.881 51.896 589.969 52.176 590.945 52.736C591.937 53.28 592.713 54.056 593.273 55.064C593.833 56.056 594.113 57.216 594.113 58.544C594.113 59.872 593.833 61.04 593.273 62.048C592.713 63.04 591.937 63.816 590.945 64.376C589.969 64.92 588.881 65.192 587.681 65.192C586.033 65.192 584.737 64.672 583.793 63.632V69.656H580.049V52.088H583.625V53.576C584.553 52.456 585.905 51.896 587.681 51.896ZM587.033 62.12C587.993 62.12 588.777 61.8 589.385 61.16C590.009 60.504 590.321 59.632 590.321 58.544C590.321 57.456 590.009 56.592 589.385 55.952C588.777 55.296 587.993 54.968 587.033 54.968C586.073 54.968 585.281 55.296 584.657 55.952C584.049 56.592 583.745 57.456 583.745 58.544C583.745 59.632 584.049 60.504 584.657 61.16C585.281 61.8 586.073 62.12 587.033 62.12ZM602.786 65.192C601.426 65.192 600.202 64.912 599.114 64.352C598.042 63.776 597.202 62.984 596.594 61.976C595.986 60.968 595.682 59.824 595.682 58.544C595.682 57.264 595.986 56.12 596.594 55.112C597.202 54.104 598.042 53.32 599.114 52.76C600.202 52.184 601.426 51.896 602.786 51.896C604.146 51.896 605.362 52.184 606.434 52.76C607.506 53.32 608.346 54.104 608.954 55.112C609.562 56.12 609.866 57.264 609.866 58.544C609.866 59.824 609.562 60.968 608.954 61.976C608.346 62.984 607.506 63.776 606.434 64.352C605.362 64.912 604.146 65.192 602.786 65.192ZM602.786 62.12C603.746 62.12 604.53 61.8 605.138 61.16C605.762 60.504 606.074 59.632 606.074 58.544C606.074 57.456 605.762 56.592 605.138 55.952C604.53 55.296 603.746 54.968 602.786 54.968C601.826 54.968 601.034 55.296 600.41 55.952C599.786 56.592 599.474 57.456 599.474 58.544C599.474 59.632 599.786 60.504 600.41 61.16C601.034 61.8 601.826 62.12 602.786 62.12ZM624.993 58.592C624.993 58.64 624.969 58.976 624.921 59.6H615.153C615.329 60.4 615.745 61.032 616.401 61.496C617.057 61.96 617.873 62.192 618.849 62.192C619.521 62.192 620.113 62.096 620.625 61.904C621.153 61.696 621.641 61.376 622.089 60.944L624.081 63.104C622.865 64.496 621.089 65.192 618.753 65.192C617.297 65.192 616.009 64.912 614.889 64.352C613.769 63.776 612.905 62.984 612.297 61.976C611.689 60.968 611.385 59.824 611.385 58.544C611.385 57.28 611.681 56.144 612.273 55.136C612.881 54.112 613.705 53.32 614.745 52.76C615.801 52.184 616.977 51.896 618.273 51.896C619.537 51.896 620.681 52.168 621.705 52.712C622.729 53.256 623.529 54.04 624.105 55.064C624.697 56.072 624.993 57.248 624.993 58.592ZM618.297 54.728C617.449 54.728 616.737 54.968 616.161 55.448C615.585 55.928 615.233 56.584 615.105 57.416H621.465C621.337 56.6 620.985 55.952 620.409 55.472C619.833 54.976 619.129 54.728 618.297 54.728ZM633.551 60.104H631.607V65H627.863V52.088H631.607V57.104H633.623L637.127 52.088H641.111L636.599 58.28L641.423 65H637.007L633.551 60.104ZM653.992 55.16H649.624V65H645.904V55.16H641.536V52.088H653.992V55.16ZM661.004 51.896C663.004 51.896 664.54 52.376 665.612 53.336C666.684 54.28 667.22 55.712 667.22 57.632V65H663.716V63.392C663.012 64.592 661.7 65.192 659.78 65.192C658.788 65.192 657.924 65.024 657.188 64.688C656.468 64.352 655.916 63.888 655.532 63.296C655.148 62.704 654.956 62.032 654.956 61.28C654.956 60.08 655.404 59.136 656.3 58.448C657.212 57.76 658.612 57.416 660.5 57.416H663.476C663.476 56.6 663.228 55.976 662.732 55.544C662.236 55.096 661.492 54.872 660.5 54.872C659.812 54.872 659.132 54.984 658.46 55.208C657.804 55.416 657.244 55.704 656.78 56.072L655.436 53.456C656.14 52.96 656.98 52.576 657.956 52.304C658.948 52.032 659.964 51.896 661.004 51.896ZM660.716 62.672C661.356 62.672 661.924 62.528 662.42 62.24C662.916 61.936 663.268 61.496 663.476 60.92V59.6H660.908C659.372 59.6 658.604 60.104 658.604 61.112C658.604 61.592 658.788 61.976 659.156 62.264C659.54 62.536 660.06 62.672 660.716 62.672ZM674.513 59.168C674.513 58.336 674.697 57.648 675.065 57.104C675.449 56.56 676.001 55.96 676.721 55.304C677.249 54.824 677.633 54.424 677.873 54.104C678.129 53.768 678.257 53.392 678.257 52.976C678.257 52.384 678.017 51.92 677.537 51.584C677.073 51.232 676.449 51.056 675.665 51.056C674.913 51.056 674.241 51.216 673.649 51.536C673.073 51.84 672.585 52.272 672.185 52.832L669.281 51.128C669.953 50.104 670.857 49.312 671.993 48.752C673.145 48.192 674.505 47.912 676.073 47.912C677.913 47.912 679.385 48.304 680.489 49.088C681.609 49.872 682.169 50.96 682.169 52.352C682.169 53.008 682.057 53.584 681.833 54.08C681.625 54.576 681.361 55 681.041 55.352C680.737 55.688 680.337 56.08 679.841 56.528C679.249 57.056 678.817 57.504 678.545 57.872C678.273 58.224 678.137 58.656 678.137 59.168H674.513ZM676.337 65.192C675.681 65.192 675.129 64.984 674.681 64.568C674.249 64.136 674.033 63.616 674.033 63.008C674.033 62.4 674.249 61.896 674.681 61.496C675.113 61.08 675.665 60.872 676.337 60.872C677.009 60.872 677.561 61.08 677.993 61.496C678.425 61.896 678.641 62.4 678.641 63.008C678.641 63.616 678.417 64.136 677.969 64.568C677.537 64.984 676.993 65.192 676.337 65.192Z" fill="black"/>
<path d="M0 0H1770V1H0V0Z" fill="#CACACA"/>
<path d="M0 111H1770V112H0V111Z" fill="#CACACA"/>
</svg>
